<?xml version="1.0" encoding="UTF-8" standalone="no"?>
<!-- Created with Inkscape (http://www.inkscape.org/) -->

<svg
   xmlns:dc="http://purl.org/dc/elements/1.1/"
   xmlns:cc="http://creativecommons.org/ns#"
   xmlns:rdf="http://www.w3.org/1999/02/22-rdf-syntax-ns#"
   xmlns:svg="http://www.w3.org/2000/svg"
   xmlns="http://www.w3.org/2000/svg"
   xmlns:sodipodi="http://sodipodi.sourceforge.net/DTD/sodipodi-0.dtd"
   xmlns:inkscape="http://www.inkscape.org/namespaces/inkscape"
   version="1.1"
   id="svg170"
   xml:space="preserve"
   width="496.172"
   height="112.4304"
   viewBox="0 0 496.172 112.4304"
   sodipodi:docname="logo-dark.svg"
   inkscape:version="0.92.4 (unknown)"><metadata
     id="metadata176"><rdf:RDF><cc:Work
         rdf:about=""><dc:format>image/svg+xml</dc:format><dc:type
           rdf:resource="http://purl.org/dc/dcmitype/StillImage" /><dc:title></dc:title></cc:Work></rdf:RDF></metadata><defs
     id="defs174"><clipPath
       clipPathUnits="userSpaceOnUse"
       id="clipPath186"><path
         d="M 0,84.323 H 372.129 V 0 H 0 Z"
         id="path184"
         inkscape:connector-curvature="0" /></clipPath></defs><sodipodi:namedview
     pagecolor="#ffffff"
     bordercolor="#666666"
     borderopacity="1"
     objecttolerance="10"
     gridtolerance="10"
     guidetolerance="10"
     inkscape:pageopacity="0"
     inkscape:pageshadow="2"
     inkscape:window-width="1920"
     inkscape:window-height="978"
     id="namedview172"
     showgrid="false"
     inkscape:zoom="0.95128303"
     inkscape:cx="248.086"
     inkscape:cy="56.215199"
     inkscape:window-x="0"
     inkscape:window-y="27"
     inkscape:window-maximized="1"
     inkscape:current-layer="g178" /><g
     id="g178"
     inkscape:groupmode="layer"
     inkscape:label="logo-dark"
     transform="matrix(1.3333333,0,0,-1.3333333,0,112.4304)"><g
       id="g180"><g
         id="g182"
         clip-path="url(#clipPath186)"><path
           d="m 127.756,29.245 h -7.05 v 24.95 h 7.05 z m -7.75,31.55 c 0,1.2 0.408,2.208 1.225,3.025 0.816,0.817 1.808,1.225 2.975,1.225 1.166,0 2.158,-0.408 2.975,-1.225 0.816,-0.817 1.225,-1.825 1.225,-3.025 0,-1.167 -0.409,-2.158 -1.225,-2.975 -0.817,-0.817 -1.809,-1.224 -2.975,-1.224 -1.167,0 -2.159,0.407 -2.975,1.224 -0.817,0.817 -1.225,1.808 -1.225,2.975"
           style="fill:#231f20;fill-opacity:1;fill-rule:nonzero;stroke:none"
           id="path188"
           inkscape:connector-curvature="0" /><g
           id="g190"
           transform="translate(147.0059,35.8944)"><path
             d="M 0,0 C 1.333,0 2.55,0.316 3.65,0.951 4.75,1.584 5.6,2.4 6.2,3.4 v 6 c -0.6,1 -1.45,1.817 -2.55,2.451 -1.1,0.632 -2.317,0.95 -3.65,0.95 -1.967,0 -3.559,-0.61 -4.775,-1.825 C -5.992,9.758 -6.6,8.233 -6.6,6.4 -6.6,4.566 -5.975,3.042 -4.725,1.826 -3.475,0.608 -1.9,0 0,0 m 6.2,15.4 v 2.901 h 7.05 V -3.75 c 0,-4.266 -1.434,-7.532 -4.3,-9.799 -2.867,-2.267 -6.25,-3.4 -10.15,-3.4 -4.1,0 -7.367,0.717 -9.8,2.15 v 6.35 c 2.633,-1.6 5.65,-2.401 9.05,-2.401 1.033,0 2,0.11 2.9,0.326 0.9,0.217 1.766,0.567 2.6,1.049 0.833,0.485 1.483,1.184 1.95,2.1 0.466,0.917 0.7,2.008 0.7,3.275 v 1.551 C 4.232,-4.916 1.482,-6.1 -2.05,-6.1 c -3.4,0 -6.184,1.201 -8.35,3.6 -2.167,2.434 -3.25,5.417 -3.25,8.951 0,3.5 1.083,6.466 3.25,8.9 2.166,2.399 4.95,3.6 8.35,3.6 3.532,0 6.282,-1.183 8.25,-3.551"
             style="fill:#231f20;fill-opacity:1;fill-rule:nonzero;stroke:none"
             id="path192"
             inkscape:connector-curvature="0" /></g><g
           id="g194"
           transform="translate(172.2051,41.745)"><path
             d="m 0,0 c 0,-2 0.65,-3.667 1.95,-5 1.3,-1.333 2.95,-2 4.949,-2 2,0 3.651,0.667 4.951,2 1.299,1.366 1.95,3.032 1.95,5 0,2 -0.651,3.649 -1.95,4.95 -1.3,1.332 -2.951,2 -4.951,2 C 4.9,6.95 3.25,6.282 1.95,4.95 0.65,3.649 0,2 0,0 m -6.95,0 c 0,3.7 1.3,6.8 3.9,9.3 2.567,2.533 5.883,3.801 9.949,3.801 4.067,0 7.383,-1.268 9.951,-3.801 2.6,-2.533 3.9,-5.633 3.9,-9.3 0,-3.733 -1.3,-6.867 -3.9,-9.399 -2.6,-2.5 -5.917,-3.75 -9.951,-3.75 -4.033,0 -7.349,1.25 -9.949,3.75 -2.6,2.532 -3.9,5.666 -3.9,9.399"
             style="fill:#231f20;fill-opacity:1;fill-rule:nonzero;stroke:none"
             id="path196"
             inkscape:connector-curvature="0" /></g><g
           id="g198"
           transform="translate(205.2051,29.245)"><path
             d="M 0,0 H -7.05 V 24.95 H 0 v -4.2 c 0.767,1.333 1.933,2.466 3.5,3.399 1.633,0.967 3.366,1.452 5.2,1.452 0.4,0 0.666,-0.018 0.8,-0.051 v -6.901 c -0.667,0.167 -1.4,0.25 -2.2,0.25 -1.634,0 -3.125,-0.423 -4.475,-1.274 C 1.475,16.774 0.532,15.75 0,14.55 Z"
             style="fill:#231f20;fill-opacity:1;fill-rule:nonzero;stroke:none"
             id="path200"
             inkscape:connector-curvature="0" /></g><g
           id="g202"
           transform="translate(234.3047,36.5956)"><path
             d="M 0,0 V 2.5 C -1.467,3.466 -3.2,3.949 -5.2,3.949 -6.7,3.949 -7.893,3.666 -8.775,3.1 -9.658,2.532 -10.1,1.732 -10.1,0.699 c 0,-1.066 0.4,-1.875 1.2,-2.425 0.8,-0.549 1.882,-0.825 3.25,-0.825 2.466,0 4.349,0.85 5.65,2.551 m 8.75,-1.9 c 0.6,0 1.082,0.099 1.449,0.299 V -6.75 C 9.3,-7.451 8.033,-7.801 6.4,-7.801 c -2.834,0 -4.717,1.067 -5.65,3.2 C -1.45,-6.867 -4.317,-8 -7.85,-8 c -2.734,0 -4.951,0.766 -6.65,2.299 -1.7,1.533 -2.551,3.551 -2.551,6.051 0,2.666 0.967,4.699 2.901,6.099 1.933,1.401 4.25,2.1 6.95,2.1 2.833,0 5.233,-0.517 7.2,-1.549 v 0.75 c 0,3.133 -2.2,4.699 -6.6,4.699 -2.701,0 -5.217,-0.699 -7.55,-2.099 v 5.9 c 2.533,1.332 5.617,2 9.25,2 3.599,0 6.466,-0.867 8.599,-2.601 C 5.9,13.916 7,11.516 7,8.449 V 0 c 0,-1.268 0.582,-1.9 1.75,-1.9"
             style="fill:#231f20;fill-opacity:1;fill-rule:nonzero;stroke:none"
             id="path204"
             inkscape:connector-curvature="0" /></g><g
           id="g206"
           transform="translate(262.6543,34.745)"><path
             d="m 0,0 c 2,0 3.616,0.667 4.85,2 1.266,1.366 1.9,3.032 1.9,5 0,1.933 -0.634,3.583 -1.9,4.95 -1.234,1.332 -2.85,2 -4.85,2 -1.334,0 -2.551,-0.342 -3.65,-1.025 -1.1,-0.684 -1.95,-1.574 -2.55,-2.675 v -6.5 c 0.6,-1.101 1.45,-2 2.55,-2.7 C -2.551,0.351 -1.334,0 0,0 m 2,-6.149 c -3.6,0 -6.334,1.232 -8.2,3.699 V -5.5 h -7.05 v 35 H -6.2 V 16.399 c 1.966,2.467 4.7,3.702 8.2,3.702 3.4,0 6.199,-1.268 8.4,-3.801 2.233,-2.467 3.35,-5.567 3.35,-9.3 0,-3.733 -1.117,-6.867 -3.35,-9.399 -2.201,-2.5 -5,-3.75 -8.4,-3.75"
             style="fill:#231f20;fill-opacity:1;fill-rule:nonzero;stroke:none"
             id="path208"
             inkscape:connector-curvature="0" /></g><g
           id="g210"
           transform="translate(298.6035,38.2948)"><path
             d="M 0,0 V 15.9 H 7.051 V -9.05 H 0 v 3 c -2.233,-2.433 -5.018,-3.649 -8.35,-3.649 -2.867,0 -5.099,0.907 -6.7,2.724 -1.6,1.817 -2.399,4.342 -2.399,7.575 V 15.9 H -10.4 V 2.051 c 0,-1.801 0.441,-3.135 1.326,-4 0.883,-0.867 2.024,-1.301 3.424,-1.301 1.066,0 2.125,0.309 3.175,0.926 C -1.425,-1.709 -0.6,-0.934 0,0"
             style="fill:#231f20;fill-opacity:1;fill-rule:nonzero;stroke:none"
             id="path212"
             inkscape:connector-curvature="0" /></g><g
           id="g214"
           transform="translate(321.7529,28.5956)"><path
             d="M 0,0 C -4.434,0 -7.934,0.782 -10.5,2.35 V 8.6 C -9.3,7.799 -7.774,7.125 -5.925,6.574 -4.075,6.024 -2.2,5.75 -0.3,5.75 2.566,5.75 4,6.449 4,7.85 4,8.516 3.583,9.032 2.75,9.399 2.316,9.6 1.883,9.75 1.45,9.85 l -1.849,0.449 c -0.268,0.066 -0.625,0.158 -1.077,0.275 -0.449,0.117 -0.757,0.208 -0.923,0.276 -2.968,0.799 -5.059,1.757 -6.276,2.875 -1.217,1.116 -1.825,2.741 -1.825,4.875 0,2.366 0.976,4.232 2.925,5.599 1.95,1.367 4.641,2.051 8.075,2.051 3.8,0 6.917,-0.768 9.351,-2.301 v -6 c -2.968,1.733 -5.985,2.6 -9.051,2.6 -2.667,0 -4,-0.666 -4,-2 0,-0.267 0.075,-0.508 0.224,-0.725 0.151,-0.217 0.301,-0.375 0.452,-0.474 0.149,-0.1 0.39,-0.25 0.724,-0.451 0.199,-0.067 0.567,-0.174 1.1,-0.325 0.533,-0.15 0.883,-0.258 1.051,-0.324 L 3,15.699 c 2.767,-0.633 4.816,-1.574 6.149,-2.824 1.334,-1.25 2,-2.943 2,-5.076 0,-2.333 -1.016,-4.217 -3.048,-5.65 C 6.066,0.716 3.366,0 0,0"
             style="fill:#231f20;fill-opacity:1;fill-rule:nonzero;stroke:none"
             id="path216"
             inkscape:connector-curvature="0" /></g><g
           id="g218"
           transform="translate(339.6689,28.8373)"><path
             d="m 0,0 c -0.471,0 -0.866,0.16 -1.187,0.48 -0.32,0.321 -0.48,0.716 -0.48,1.186 0,0.469 0.16,0.865 0.48,1.185 0.321,0.321 0.716,0.481 1.187,0.481 0.47,0 0.865,-0.16 1.186,-0.481 0.32,-0.32 0.48,-0.716 0.48,-1.185 0,-0.47 -0.16,-0.865 -0.48,-1.186 C 0.865,0.16 0.47,0 0,0"
             style="fill:#231f20;fill-opacity:1;fill-rule:nonzero;stroke:none"
             id="path220"
             inkscape:connector-curvature="0" /></g><g
           id="g222"
           transform="translate(348.4805,29.0292)"><path
             d="M 0,0 H -2.308 V 15.477 H 0 v -2.948 c 0.576,1.004 1.432,1.811 2.563,2.42 1.133,0.608 2.329,0.913 3.59,0.913 V 13.523 C 5.447,13.523 4.807,13.427 4.23,13.234 3.247,12.978 2.382,12.534 1.635,11.905 0.887,11.274 0.342,10.564 0,9.773 Z"
             style="fill:#231f20;fill-opacity:1;fill-rule:nonzero;stroke:none"
             id="path224"
             inkscape:connector-curvature="0" /></g><g
           id="g226"
           transform="translate(369.8223,34.0605)"><path
             d="M 0,0 V 10.446 H 2.307 V -5.031 H 0 v 2.371 c -1.646,-1.837 -3.707,-2.756 -6.186,-2.756 -1.901,0 -3.359,0.561 -4.374,1.682 -1.014,1.122 -1.521,2.709 -1.521,4.759 v 9.421 h 2.308 V 1.538 c 0,-3.184 1.461,-4.775 4.389,-4.775 1.068,0 2.093,0.32 3.076,0.962 C -1.262,-1.592 -0.492,-0.833 0,0"
             style="fill:#231f20;fill-opacity:1;fill-rule:nonzero;stroke:none"
             id="path228"
             inkscape:connector-curvature="0" /></g><g
           id="g230"
           transform="translate(4.2334,18.4413)"><path
             d="M 0,0 C -0.341,0 -0.618,1.448 -0.618,3.234 -0.618,5.02 -0.341,6.468 0,6.468 0.342,6.468 0.619,5.02 0.619,3.234 0.619,1.448 0.342,0 0,0 m 0,9.231 c -0.717,0 -1.298,-2.74 -1.298,-6.121 0,-3.38 0.581,-6.121 1.298,-6.121 0.717,0 1.298,2.741 1.298,6.121 0,3.381 -0.581,6.121 -1.298,6.121"
             style="fill:#231f20;fill-opacity:1;fill-rule:nonzero;stroke:none"
             id="path232"
             inkscape:connector-curvature="0" /></g><g
           id="g234"
           transform="translate(24.0298,15.2479)"><path
             d="m 0,0 c -1.019,0 -1.844,2.57 -1.844,5.741 0,3.171 0.825,5.741 1.844,5.741 1.019,0 1.844,-2.57 1.844,-5.741 C 1.844,2.57 1.019,0 0,0 m 0,14.828 c -1.646,0 -2.979,-4.152 -2.979,-9.274 0,-5.122 1.333,-9.274 2.979,-9.274 1.646,0 2.979,4.152 2.979,9.274 0,5.122 -1.333,9.274 -2.979,9.274"
             style="fill:#231f20;fill-opacity:1;fill-rule:nonzero;stroke:none"
             id="path236"
             inkscape:connector-curvature="0" /></g><g
           id="g238"
           transform="translate(8.0049,35.0912)"><path
             d="M 0,0 V -1.607 L -7.482,-3.34 v 1.114 z"
             style="fill:#231f20;fill-opacity:1;fill-rule:nonzero;stroke:none"
             id="path240"
             inkscape:connector-curvature="0" /></g><g
           id="g242"
           transform="translate(12.333,36.0805)"><path
             d="m 0,0 v -1.483 l 15.622,3.709 -1.031,2.72 z"
             style="fill:#231f20;fill-opacity:1;fill-rule:nonzero;stroke:none"
             id="path244"
             inkscape:connector-curvature="0" /></g><g
           id="g246"
           transform="translate(6.2119,21.5399)"><path
             d="m 0,0 v -1.529 c 0.017,-0.001 13.478,-1.73 13.478,-1.73 v 2.272 C 13.478,-0.987 0.046,-0.005 0,0"
             style="fill:#231f20;fill-opacity:1;fill-rule:nonzero;stroke:none"
             id="path248"
             inkscape:connector-curvature="0" /></g><g
           id="g250"
           transform="translate(87.4834,75.0248)"><path
             d="m 0,0 c -1.191,2.208 -3.179,4.891 -5.186,5.796 -7.293,3.289 -25.714,3.817 -33.502,3.36 -1.64,-0.096 -5.045,-0.732 -6.647,-1.508 -4.005,-1.942 -27.532,-20.34 -39.383,-31.574 -1.815,-1.72 -2.045,-3.537 -2.054,-3.614 l -10e-4,-0.01 -0.71,-25.656 c -0.011,-0.382 0.13,-0.743 0.397,-1.017 0.266,-0.274 1.937,-0.538 2.155,-0.548 0.023,-10e-4 0.016,1.524 0,1.525 -0.234,0.011 -0.787,-0.323 -1.027,0.026 -1.864,2.719 0.709,24.601 0.709,24.601 0.02,0.138 -0.201,1.414 1.902,3.303 10.991,9.87 34.245,28.525 38.228,30.457 1.524,0.739 4.898,3.43 6.46,3.522 7.746,0.453 26.054,-0.063 33.27,-3.318 1.894,-0.854 3.801,-3.442 4.954,-5.58 3.073,-5.698 8.04,-17.804 6.772,-34.858 -0.418,-5.613 -2.325,-19.536 -2.57,-21.61 0,0 -34.419,-2.206 -45.888,-1.902 -7.001,0.186 -17.14,3.36 -17.14,3.36 v -2.518 c 0,0 12.77,-3.726 17.097,-3.726 4.665,0 46.371,2.019 46.371,2.019 l 0.025,0.218 c 0.022,0.181 2.647,18.14 3.093,24.123 C 8.603,-17.95 3.099,-5.746 0,0"
             style="fill:#231f20;fill-opacity:1;fill-rule:nonzero;stroke:none"
             id="path252"
             inkscape:connector-curvature="0" /></g><g
           id="g254"
           transform="translate(51.1753,17.6957)"><path
             d="M 0,0 C -4.92,0.394 -5.745,0.98 -6.122,4.375 -3.446,3.811 -1.032,3.147 0,0"
             style="fill:#231f20;fill-opacity:1;fill-rule:nonzero;stroke:none"
             id="path256"
             inkscape:connector-curvature="0" /></g><g
           id="g258"
           transform="translate(89.1782,18.9032)"><path
             d="M 0,0 C 0.962,1.471 0.375,3.267 2.784,4.256 3.714,3.885 3.274,0.05 0,0"
             style="fill:#231f20;fill-opacity:1;fill-rule:nonzero;stroke:none"
             id="path260"
             inkscape:connector-curvature="0" /></g><g
           id="g262"
           transform="translate(66.104,15.8637)"><path
             d="M 0,0 C 0.514,-2.28 1.348,-3.808 2.3,-3.946 L 2.299,-3.957 h 4.145 l 0.005,0.093 c 0.137,-0.06 0.277,-0.093 0.419,-0.093 1.01,0 1.902,1.565 2.441,3.957 z"
             style="fill:#231f20;fill-opacity:1;fill-rule:nonzero;stroke:none"
             id="path264"
             inkscape:connector-curvature="0" /></g><g
           id="g266"
           transform="translate(88.0078,69.9613)"><path
             d="m 0,0 c -4.575,2.72 -21.639,4.328 -42.166,2.968 -1.916,-0.127 -2.11,7.099 -0.37,7.913 5.811,2.721 30.295,0.495 37.961,-2.473 C -2.343,7.544 2.057,-1.223 0,0 m -1.236,5.812 c -3.835,5.751 -8.305,5.829 -11.5,6.8 -6.34,1.927 -26.462,1.484 -26.462,1.484 0,0 -6.95,-0.382 -8.037,-2.473 -1.608,-3.091 -13.478,-37.219 -13.478,-37.219 l 6.677,-23.617 h 5.07 l -0.866,20.773 c 0,0 1.937,-1.504 2.721,-1.607 8.408,-1.113 53.417,0 53.417,0 0,0 1.113,22.875 -7.542,35.859"
             style="fill:#231f20;fill-opacity:1;fill-rule:nonzero;stroke:none"
             id="path268"
             inkscape:connector-curvature="0" /></g><g
           id="g270"
           transform="translate(88.0078,69.6132)"><path
             d="m 0,0 c -4.575,2.72 -21.639,4.328 -42.166,2.968 -1.916,-0.127 -2.11,7.099 -0.37,7.913 5.811,2.721 30.295,0.495 37.961,-2.473 C -2.343,7.544 2.057,-1.223 0,0 m -1.236,5.812 c -3.835,5.751 -8.305,5.83 -11.5,6.801 -6.34,1.926 -26.462,1.483 -26.462,1.483 0,0 -6.95,-0.382 -8.037,-2.472 -1.608,-3.092 -13.478,-37.22 -13.478,-37.22 l 6.677,-23.617 5.07,-1.243 -0.866,20.774 c 0,0 1.937,-0.262 2.721,-0.365 8.408,-1.113 53.417,0 53.417,0 0,0 1.113,22.875 -7.542,35.859"
             style="fill:#231f20;fill-opacity:1;fill-rule:nonzero;stroke:none"
             id="path272"
             inkscape:connector-curvature="0" /></g><g
           id="g274"
           transform="translate(3.002,45.1742)"><path
             d="m 0,0 -0.252,-7.568 c -0.029,-0.855 0.82,-1.466 1.622,-1.166 l 18.261,6.823 c 1.12,0.418 2.006,1.301 2.428,2.419 l 9.525,25.231 c 0.277,0.734 -0.6,1.358 -1.202,0.857 L 1.101,2.249 C 0.43,1.691 0.029,0.872 0,0"
             style="fill:#231f20;fill-opacity:1;fill-rule:nonzero;stroke:none"
             id="path276"
             inkscape:connector-curvature="0" /></g><g
           id="g278"
           transform="translate(44.0039,29.2182)"><path
             d="m 0,0 c 0.174,-0.656 0.506,-1.257 0.834,-1.85 0.368,-0.664 0.763,-1.358 1.413,-1.751 0.351,-0.212 0.752,-0.32 1.148,-0.423 4.031,-1.05 8.134,-1.818 12.272,-2.297 -0.629,1.251 -1.362,2.603 -2.662,3.126 -0.374,0.151 -0.776,0.222 -1.173,0.295 -3.74,0.681 -7.443,1.557 -11.092,2.623 z"
             style="fill:#231f20;fill-opacity:1;fill-rule:nonzero;stroke:none"
             id="path280"
             inkscape:connector-curvature="0" /></g><g
           id="g282"
           transform="translate(93.167,27.204)"><path
             d="M 0,0 C 0.017,0.834 -0.067,1.671 -0.248,2.485 -0.253,2.507 -0.258,2.53 -0.273,2.547 -0.315,2.595 -0.394,2.561 -0.447,2.525 -1.087,2.101 -1.803,1.808 -2.514,1.518 -2.819,1.393 -3.125,1.269 -3.429,1.144 -3.993,0.914 -4.558,0.684 -5.145,0.522 -5.423,0.447 -5.706,0.386 -5.979,0.296 -6.308,0.188 -6.621,0.04 -6.932,-0.109 c -0.257,-0.122 -0.524,-0.252 -0.701,-0.476 -0.124,-0.156 -0.194,-0.347 -0.28,-0.527 -0.168,-0.354 -0.399,-0.675 -0.581,-1.022 -0.182,-0.347 -0.317,-0.737 -0.267,-1.126 2.403,0.601 4.814,1.205 7.125,2.097 0.461,0.178 0.917,0.367 1.373,0.556 z"
             style="fill:#231f20;fill-opacity:1;fill-rule:nonzero;stroke:none"
             id="path284"
             inkscape:connector-curvature="0" /></g><g
           id="g286"
           transform="translate(62.6802,23.0756)"><path
             d="m 0,0 c -0.155,0.016 -0.279,-0.149 -0.281,-0.305 -10e-4,-0.155 0.082,-0.297 0.162,-0.43 0.291,-0.481 0.575,-0.967 0.872,-1.443 0.332,-0.532 0.676,-0.496 0.837,-0.5 0.791,-0.02 14.056,0.177 15.431,0.29 0.175,0.014 0.766,0.121 0.867,0.22 0.524,0.513 0.919,1.157 1.138,1.857 0.054,0.17 0.092,0.373 -0.017,0.515 C 18.917,0.325 0,0 0,0"
             style="fill:#231f20;fill-opacity:1;fill-rule:nonzero;stroke:none"
             id="path288"
             inkscape:connector-curvature="0" /></g><g
           id="g290"
           transform="translate(59.9814,29.0356)"><path
             d="m 0,0 c -0.187,0.019 -0.338,-0.181 -0.34,-0.369 -0.002,-0.189 0.098,-0.361 0.196,-0.522 0.352,-0.583 0.696,-1.171 1.057,-1.749 0.402,-0.645 0.818,-0.601 1.015,-0.606 0.958,-0.024 17.035,0.215 18.701,0.351 0.212,0.018 0.928,0.147 1.051,0.267 0.634,0.622 1.113,1.403 1.379,2.251 0.065,0.207 0.111,0.452 -0.02,0.624 C 22.926,0.394 0,0 0,0"
             style="fill:#231f20;fill-opacity:1;fill-rule:nonzero;stroke:none"
             id="path292"
             inkscape:connector-curvature="0" /></g><g
           id="g294"
           transform="translate(57.7285,7.3402)"><path
             d="m 0,0 -10.509,-0.319 -4.567,2.61 10.586,0.175 z"
             style="fill:#231f20;fill-opacity:1;fill-rule:nonzero;stroke:none"
             id="path296"
             inkscape:connector-curvature="0" /></g><g
           id="g298"
           transform="translate(75.6729,7.8856)"><path
             d="m 0,0 -8.513,-0.259 -4.404,2.338 8.603,0.142 z"
             style="fill:#231f20;fill-opacity:1;fill-rule:nonzero;stroke:none"
             id="path300"
             inkscape:connector-curvature="0" /></g><g
           id="g302"
           transform="translate(90.4302,8.3339)"><path
             d="m 0,0 -7.036,-0.214 -4.221,2.116 7.13,0.119 z"
             style="fill:#231f20;fill-opacity:1;fill-rule:nonzero;stroke:none"
             id="path304"
             inkscape:connector-curvature="0" /></g><g
           id="g306"
           transform="translate(71.7007,5.2177)"><path
             d="m 0,0 -9.336,-0.423 -4.636,2.546 9.431,0.286 z"
             style="fill:#231f20;fill-opacity:1;fill-rule:nonzero;stroke:none"
             id="path308"
             inkscape:connector-curvature="0" /></g><g
           id="g310"
           transform="translate(87.7334,5.9452)"><path
             d="m 0,0 -7.62,-0.346 -4.441,2.286 7.722,0.235 z"
             style="fill:#231f20;fill-opacity:1;fill-rule:nonzero;stroke:none"
             id="path312"
             inkscape:connector-curvature="0" /></g><g
           id="g314"
           transform="translate(101.0044,6.5468)"><path
             d="m 0,0 -6.337,-0.287 -4.237,2.074 6.437,0.196 z"
             style="fill:#231f20;fill-opacity:1;fill-rule:nonzero;stroke:none"
             id="path316"
             inkscape:connector-curvature="0" /></g><g
           id="g318"
           transform="translate(102.7798,8.7094)"><path
             d="m 0,0 -5.913,-0.18 -4.034,1.933 6.005,0.1 z"
             style="fill:#231f20;fill-opacity:1;fill-rule:nonzero;stroke:none"
             id="path320"
             inkscape:connector-curvature="0" /></g><g
           id="g322"
           transform="translate(67.1538,2.1644)"><path
             d="m 0,0 -10.319,-0.636 -4.89,2.793 10.42,0.473 z"
             style="fill:#231f20;fill-opacity:1;fill-rule:nonzero;stroke:none"
             id="path324"
             inkscape:connector-curvature="0" /></g><g
           id="g326"
           transform="translate(35.4385,6.6635)"><path
             d="m 0,0 -13.299,-0.404 -4.676,2.953 13.344,0.222 z"
             style="fill:#231f20;fill-opacity:1;fill-rule:nonzero;stroke:none"
             id="path328"
             inkscape:connector-curvature="0" /></g><g
           id="g330"
           transform="translate(51.9443,4.3217)"><path
             d="M 0,0 -11.705,-0.531 -16.506,2.342 -4.725,2.7 Z"
             style="fill:#231f20;fill-opacity:1;fill-rule:nonzero;stroke:none"
             id="path332"
             inkscape:connector-curvature="0" /></g><g
           id="g334"
           transform="translate(45.2188,0.8119)"><path
             d="m 0,0 -13.172,-0.812 -5.05,3.19 13.243,0.601 z"
             style="fill:#231f20;fill-opacity:1;fill-rule:nonzero;stroke:none"
             id="path336"
             inkscape:connector-curvature="0" /></g><g
           id="g338"
           transform="translate(84.6855,3.2455)"><path
             d="m 0,0 -8.303,-0.512 -4.682,2.484 8.413,0.382 z"
             style="fill:#231f20;fill-opacity:1;fill-rule:nonzero;stroke:none"
             id="path340"
             inkscape:connector-curvature="0" /></g><g
           id="g342"
           transform="translate(99.0195,4.1288)"><path
             d="m 0,0 -6.825,-0.42 -4.461,2.236 6.934,0.315 z"
             style="fill:#231f20;fill-opacity:1;fill-rule:nonzero;stroke:none"
             id="path344"
             inkscape:connector-curvature="0" /></g><g
           id="g346"
           transform="translate(110.9565,4.8651)"><path
             d="m 0,0 -5.708,-0.352 -4.244,2.034 5.814,0.263 z"
             style="fill:#231f20;fill-opacity:1;fill-rule:nonzero;stroke:none"
             id="path348"
             inkscape:connector-curvature="0" /></g></g></g></g></svg>