<?xml version="1.0" encoding="UTF-8" standalone="no"?>
<!-- Created with Inkscape (http://www.inkscape.org/) -->

<svg
   xmlns:dc="http://purl.org/dc/elements/1.1/"
   xmlns:cc="http://creativecommons.org/ns#"
   xmlns:rdf="http://www.w3.org/1999/02/22-rdf-syntax-ns#"
   xmlns:svg="http://www.w3.org/2000/svg"
   xmlns="http://www.w3.org/2000/svg"
   xmlns:sodipodi="http://sodipodi.sourceforge.net/DTD/sodipodi-0.dtd"
   xmlns:inkscape="http://www.inkscape.org/namespaces/inkscape"
   version="1.1"
   id="svg572"
   xml:space="preserve"
   width="916.62268"
   height="916.62268"
   viewBox="0 0 916.62268 916.62268"
   sodipodi:docname="advcheck-icon.svg"
   inkscape:version="0.92.4 (unknown)"><metadata
     id="metadata578"><rdf:RDF><cc:Work
         rdf:about=""><dc:format>image/svg+xml</dc:format><dc:type
           rdf:resource="http://purl.org/dc/dcmitype/StillImage" /><dc:title></dc:title></cc:Work></rdf:RDF></metadata><defs
     id="defs576"><clipPath
       clipPathUnits="userSpaceOnUse"
       id="clipPath592"><path
         d="M 0,687.467 H 687.467 V 0 H 0 Z"
         id="path590"
         inkscape:connector-curvature="0" /></clipPath></defs><sodipodi:namedview
     pagecolor="#ffffff"
     bordercolor="#666666"
     borderopacity="1"
     objecttolerance="10"
     gridtolerance="10"
     guidetolerance="10"
     inkscape:pageopacity="0"
     inkscape:pageshadow="2"
     inkscape:window-width="1920"
     inkscape:window-height="978"
     id="namedview574"
     showgrid="false"
     inkscape:zoom="0.86949627"
     inkscape:cx="458.31134"
     inkscape:cy="458.31134"
     inkscape:window-x="0"
     inkscape:window-y="27"
     inkscape:window-maximized="1"
     inkscape:current-layer="g580" /><g
     id="g580"
     inkscape:groupmode="layer"
     inkscape:label="advcheck-icon"
     transform="matrix(1.3333333,0,0,-1.3333333,0,916.62267)"><g
       id="g582"
       transform="translate(128.7944,329.4834)"><path
         d="M 0,0 55.497,55.498 155.992,-44.997 385.48,181.491 437.978,131.994 154.492,-152.992 Z"
         style="fill:#000000;fill-opacity:1;fill-rule:nonzero;stroke:none"
         id="path584"
         inkscape:connector-curvature="0" /></g><g
       id="g586"><g
         id="g588"
         clip-path="url(#clipPath592)"><g
           id="g594"
           transform="translate(343.7334,652.4673)"><path
             d="m 0,0 c -170.236,0 -308.733,-138.498 -308.733,-308.734 0,-170.236 138.497,-308.733 308.733,-308.733 170.237,0 308.734,138.497 308.734,308.733 C 308.734,-138.498 170.237,0 0,0 m 0,-652.467 c -46.396,0 -91.414,9.091 -133.802,27.019 -40.934,17.314 -77.692,42.096 -109.254,73.657 -31.563,31.563 -56.344,68.322 -73.658,109.255 -17.929,42.389 -27.019,87.406 -27.019,133.802 0,46.396 9.09,91.414 27.019,133.802 17.314,40.934 42.095,77.692 73.658,109.255 31.562,31.562 68.32,56.344 109.254,73.657 C -91.414,25.909 -46.396,35 0,35 46.396,35 91.414,25.909 133.802,7.98 c 40.934,-17.313 77.693,-42.095 109.255,-73.657 31.562,-31.563 56.344,-68.321 73.657,-109.255 17.929,-42.388 27.02,-87.406 27.02,-133.802 0,-46.396 -9.091,-91.413 -27.02,-133.802 -17.313,-40.933 -42.095,-77.692 -73.658,-109.255 -31.561,-31.561 -68.32,-56.343 -109.254,-73.657 C 91.414,-643.376 46.396,-652.467 0,-652.467"
             style="fill:#000000;fill-opacity:1;fill-rule:nonzero;stroke:none"
             id="path596"
             inkscape:connector-curvature="0" /></g></g></g></g></svg>