<?xml version="1.0" encoding="UTF-8" standalone="no"?>
<!-- Created with Inkscape (http://www.inkscape.org/) -->

<svg
   xmlns:dc="http://purl.org/dc/elements/1.1/"
   xmlns:cc="http://creativecommons.org/ns#"
   xmlns:rdf="http://www.w3.org/1999/02/22-rdf-syntax-ns#"
   xmlns:svg="http://www.w3.org/2000/svg"
   xmlns="http://www.w3.org/2000/svg"
   xmlns:sodipodi="http://sodipodi.sourceforge.net/DTD/sodipodi-0.dtd"
   xmlns:inkscape="http://www.inkscape.org/namespaces/inkscape"
   version="1.1"
   id="svg923"
   xml:space="preserve"
   width="693.3493"
   height="675.12"
   viewBox="0 0 693.3493 675.12"
   sodipodi:docname="check-arrow.svg"
   inkscape:version="0.92.4 (unknown)"><metadata
     id="metadata929"><rdf:RDF><cc:Work
         rdf:about=""><dc:format>image/svg+xml</dc:format><dc:type
           rdf:resource="http://purl.org/dc/dcmitype/StillImage" /><dc:title></dc:title></cc:Work></rdf:RDF></metadata><defs
     id="defs927"><clipPath
       clipPathUnits="userSpaceOnUse"
       id="clipPath939"><path
         d="M 0,506.34 H 520.012 V 0 H 0 Z"
         id="path937"
         inkscape:connector-curvature="0" /></clipPath></defs><sodipodi:namedview
     pagecolor="#ffffff"
     bordercolor="#666666"
     borderopacity="1"
     objecttolerance="10"
     gridtolerance="10"
     guidetolerance="10"
     inkscape:pageopacity="0"
     inkscape:pageshadow="2"
     inkscape:window-width="1920"
     inkscape:window-height="978"
     id="namedview925"
     showgrid="false"
     inkscape:zoom="1.1805309"
     inkscape:cx="346.67465"
     inkscape:cy="337.56"
     inkscape:window-x="0"
     inkscape:window-y="27"
     inkscape:window-maximized="1"
     inkscape:current-layer="g931" /><g
     id="g931"
     inkscape:groupmode="layer"
     inkscape:label="check-arrow"
     transform="matrix(1.3333333,0,0,-1.3333333,0,675.12)"><g
       id="g933"><g
         id="g935"
         clip-path="url(#clipPath939)"><g
           id="g941"
           transform="translate(229.0912,14.468)"><path
             d="m 0,0 c 5.084,6.39 9.711,13.395 14.185,20.17 2.015,3.052 4.099,6.207 6.214,9.292 1.576,2.299 3.187,4.574 4.8,6.851 1.737,2.452 3.532,4.988 5.236,7.492 2.77,4.072 5.615,8.425 8.455,12.935 1.087,1.727 2.156,3.545 3.191,5.305 1.761,2.993 3.582,6.09 5.671,9.07 2.354,3.357 4.86,6.644 7.283,9.823 2.637,3.458 5.363,7.034 7.819,10.613 2.643,3.847 5.161,7.929 7.597,11.876 1.984,3.215 4.035,6.54 6.178,9.782 3.949,5.978 8.074,11.966 12.063,17.757 1.789,2.597 3.579,5.196 5.359,7.801 l 5.303,7.755 c 4.586,6.705 9.172,13.409 13.733,20.127 l 0.496,0.731 c 3.96,5.834 8.055,11.866 11.943,17.849 3.496,5.382 6.957,10.785 10.418,16.187 3.648,5.693 7.42,11.581 11.179,17.354 2.385,3.664 4.886,7.312 7.306,10.839 1.427,2.081 2.854,4.162 4.263,6.254 0.953,1.414 1.883,2.843 2.813,4.271 1.547,2.377 3.147,4.834 4.854,7.231 1.479,2.076 3.033,4.108 4.535,6.073 2.108,2.758 4.099,5.362 5.908,8.086 2.752,4.147 5.448,8.462 8.053,12.636 2.411,3.86 4.903,7.852 7.464,11.748 2.765,4.208 5.666,8.4 8.471,12.455 2.381,3.442 4.844,7.002 7.189,10.522 1.391,2.087 2.678,4.211 4.041,6.459 1.613,2.663 3.283,5.417 5.131,8.09 1.61,2.328 3.375,4.505 5.081,6.612 1.515,1.87 2.945,3.635 4.247,5.465 4.519,6.347 8.868,12.885 12.526,18.444 2.505,3.805 5.016,7.71 7.445,11.486 3.706,5.765 7.54,11.725 11.474,17.527 3.311,4.884 6.771,9.767 10.117,14.49 4.781,6.747 9.724,13.723 14.24,20.716 5.532,8.568 8.261,16.167 8.587,23.917 0.577,13.679 -3.572,24.831 -12.683,34.096 -6.116,6.221 -12.187,10.284 -18.558,12.422 -14.696,4.933 -28.933,4.269 -42.315,-1.97 -6.278,-2.928 -11.798,-7.234 -16.406,-12.8 -3.017,-3.643 -5.519,-7.697 -8.167,-11.988 -1.396,-2.263 -2.84,-4.602 -4.37,-6.884 -3.076,-4.586 -6.243,-9.212 -9.306,-13.685 -2.531,-3.697 -5.062,-7.394 -7.568,-11.105 -4.915,-7.277 -9.696,-14.46 -15.363,-23.007 -1.368,-2.064 -2.713,-4.142 -4.058,-6.219 -1.799,-2.779 -3.658,-5.653 -5.559,-8.466 -3.167,-4.685 -6.423,-9.415 -9.57,-13.99 -2.066,-3.001 -4.132,-6.002 -6.186,-9.011 -5.534,-8.101 -11.048,-16.213 -16.55,-24.333 l -1.752,-2.58 c -2.427,-3.57 -4.936,-7.26 -7.288,-10.918 -2.07,-3.218 -4.101,-6.458 -6.132,-9.698 -3.04,-4.849 -6.183,-9.863 -9.425,-14.745 -2.566,-3.863 -5.29,-7.675 -7.924,-11.362 -2.235,-3.129 -4.546,-6.364 -6.716,-9.569 -2.818,-4.163 -5.618,-8.458 -8.327,-12.611 -2.781,-4.264 -5.657,-8.672 -8.575,-12.98 -2.149,-3.17 -4.409,-6.307 -6.595,-9.34 -2.557,-3.549 -5.2,-7.218 -7.612,-10.874 -3.291,-4.99 -6.549,-10.141 -9.698,-15.122 -3.71,-5.867 -7.547,-11.933 -11.498,-17.833 -3.169,-4.736 -6.575,-9.382 -9.869,-13.875 -2.541,-3.467 -5.17,-7.053 -7.636,-10.611 -3.816,-5.501 -7.52,-11.247 -11.103,-16.804 l -2.38,-3.687 c -1.343,-2.076 -2.679,-4.23 -3.972,-6.313 -1.543,-2.487 -3.139,-5.059 -4.793,-7.577 -2.181,-3.32 -4.46,-6.631 -6.663,-9.832 -1.143,-1.66 -2.285,-3.32 -3.418,-4.986 -2.079,-3.058 -4.149,-6.12 -6.253,-9.234 l -6.967,-10.299 -4.736,5.546 c -1.961,2.297 -3.895,4.548 -5.806,6.771 -4.295,4.998 -8.352,9.72 -12.4,14.59 -7.221,8.685 -14.437,17.587 -21.415,26.195 l -0.419,0.517 c -3.095,3.818 -6.171,7.65 -9.247,11.482 -4.517,5.627 -9.187,11.446 -13.837,17.113 -1.618,1.973 -3.338,3.863 -5.159,5.864 -1.799,1.977 -3.66,4.022 -5.419,6.16 -1.627,1.976 -3.089,4.015 -4.503,5.988 -1.183,1.65 -2.301,3.209 -3.493,4.711 -1.385,1.747 -2.826,3.434 -4.352,5.22 -2.085,2.441 -4.241,4.966 -6.226,7.637 -3.938,5.3 -8.563,9.528 -13.746,12.569 -6.821,4.002 -12.968,6.165 -19.345,6.808 -2.944,0.297 -5.76,0.446 -8.453,0.446 -12.549,0 -22.485,-3.249 -30.833,-9.997 -2.995,-2.42 -6.112,-5.026 -8.445,-7.95 l -0.864,-1.08 c -2.888,-3.6 -5.873,-7.324 -7.146,-11.019 -6.209,-18.032 -2.331,-34.119 11.855,-49.183 5.61,-5.957 10.651,-12.4 15.525,-18.631 2.066,-2.641 4.203,-5.372 6.336,-8.004 3.091,-3.814 6.171,-7.633 9.252,-11.453 4.453,-5.521 8.907,-11.043 13.388,-16.544 1.814,-2.225 3.726,-4.473 5.576,-6.646 1.666,-1.958 3.332,-3.916 4.964,-5.897 1.552,-1.886 3.068,-3.798 4.583,-5.71 1.467,-1.852 2.983,-3.766 4.497,-5.604 1.89,-2.293 3.811,-4.566 5.73,-6.84 3.155,-3.736 6.417,-7.599 9.519,-11.522 2.372,-3 4.648,-6.089 6.85,-9.077 2.601,-3.531 5.291,-7.18 8.079,-10.594 2.69,-3.293 5.659,-6.56 8.529,-9.719 2.441,-2.686 4.965,-5.465 7.369,-8.309 6.678,-7.903 13.069,-15.883 18.439,-22.646 1.366,-1.719 2.595,-3.483 3.783,-5.189 1.615,-2.318 3.14,-4.507 4.879,-6.423 3.173,-3.494 6.445,-6.364 9.725,-8.529 l 0.256,-0.169 c 4.372,-2.886 8.893,-5.87 13.394,-7.079 16.071,-4.319 29.578,-3.207 41.291,3.399 0.616,0.348 1.241,0.694 1.87,1.044 C -6.481,-5.2 -2.284,-2.87 0,0"
             style="fill:#231f20;fill-opacity:1;fill-rule:nonzero;stroke:none"
             id="path943"
             inkscape:connector-curvature="0" /></g></g></g></g></svg>