<?xml version="1.0" encoding="UTF-8" standalone="no"?>
<!-- Created with Inkscape (http://www.inkscape.org/) -->

<svg
   xmlns:dc="http://purl.org/dc/elements/1.1/"
   xmlns:cc="http://creativecommons.org/ns#"
   xmlns:rdf="http://www.w3.org/1999/02/22-rdf-syntax-ns#"
   xmlns:svg="http://www.w3.org/2000/svg"
   xmlns="http://www.w3.org/2000/svg"
   xmlns:sodipodi="http://sodipodi.sourceforge.net/DTD/sodipodi-0.dtd"
   xmlns:inkscape="http://www.inkscape.org/namespaces/inkscape"
   version="1.1"
   id="svg991"
   xml:space="preserve"
   width="157.23199"
   height="157.23199"
   viewBox="0 0 157.23199 157.23199"
   sodipodi:docname="close-icon.svg"
   inkscape:version="0.92.4 (unknown)"><metadata
     id="metadata997"><rdf:RDF><cc:Work
         rdf:about=""><dc:format>image/svg+xml</dc:format><dc:type
           rdf:resource="http://purl.org/dc/dcmitype/StillImage" /><dc:title></dc:title></cc:Work></rdf:RDF></metadata><defs
     id="defs995"><clipPath
       clipPathUnits="userSpaceOnUse"
       id="clipPath1007"><path
         d="M 0,117.924 H 117.924 V 0 H 0 Z"
         id="path1005"
         inkscape:connector-curvature="0" /></clipPath></defs><sodipodi:namedview
     pagecolor="#ffffff"
     bordercolor="#666666"
     borderopacity="1"
     objecttolerance="10"
     gridtolerance="10"
     guidetolerance="10"
     inkscape:pageopacity="0"
     inkscape:pageshadow="2"
     inkscape:window-width="1920"
     inkscape:window-height="978"
     id="namedview993"
     showgrid="false"
     inkscape:zoom="5.0689429"
     inkscape:cx="78.615997"
     inkscape:cy="78.615997"
     inkscape:window-x="0"
     inkscape:window-y="27"
     inkscape:window-maximized="1"
     inkscape:current-layer="g999" /><g
     id="g999"
     inkscape:groupmode="layer"
     inkscape:label="close-icon"
     transform="matrix(1.3333333,0,0,-1.3333333,0,157.232)"><g
       id="g1001"><g
         id="g1003"
         clip-path="url(#clipPath1007)"><g
           id="g1009"
           transform="translate(3.8076,3.8076)"><path
             d="m 0,0 v 0 c -5.077,5.077 -5.077,13.308 0,18.385 l 91.924,91.924 c 5.076,5.076 13.308,5.076 18.385,0 5.076,-5.077 5.076,-13.309 0,-18.385 L 18.385,0 C 13.308,-5.077 5.077,-5.077 0,0"
             style="fill:#000000;fill-opacity:1;fill-rule:nonzero;stroke:none"
             id="path1011"
             inkscape:connector-curvature="0" /></g><g
           id="g1013"
           transform="translate(114.1162,3.8076)"><path
             d="m 0,0 v 0 c 5.077,5.077 5.077,13.308 0,18.385 l -91.924,91.924 c -5.076,5.076 -13.308,5.076 -18.385,0 -5.076,-5.077 -5.076,-13.309 0,-18.385 L -18.385,0 C -13.308,-5.077 -5.077,-5.077 0,0"
             style="fill:#000000;fill-opacity:1;fill-rule:nonzero;stroke:none"
             id="path1015"
             inkscape:connector-curvature="0" /></g></g></g></g></svg>