<?xml version="1.0" encoding="UTF-8" standalone="no"?>
<!-- Created with Inkscape (http://www.inkscape.org/) -->

<svg
   xmlns:dc="http://purl.org/dc/elements/1.1/"
   xmlns:cc="http://creativecommons.org/ns#"
   xmlns:rdf="http://www.w3.org/1999/02/22-rdf-syntax-ns#"
   xmlns:svg="http://www.w3.org/2000/svg"
   xmlns="http://www.w3.org/2000/svg"
   xmlns:sodipodi="http://sodipodi.sourceforge.net/DTD/sodipodi-0.dtd"
   xmlns:inkscape="http://www.inkscape.org/namespaces/inkscape"
   version="1.1"
   id="svg442"
   xml:space="preserve"
   width="1031.8533"
   height="933.87732"
   viewBox="0 0 1031.8533 933.87732"
   sodipodi:docname="link-icon-1.svg"
   inkscape:version="0.92.4 (unknown)"><metadata
     id="metadata448"><rdf:RDF><cc:Work
         rdf:about=""><dc:format>image/svg+xml</dc:format><dc:type
           rdf:resource="http://purl.org/dc/dcmitype/StillImage" /><dc:title></dc:title></cc:Work></rdf:RDF></metadata><defs
     id="defs446"><clipPath
       clipPathUnits="userSpaceOnUse"
       id="clipPath458"><path
         d="M 0,700.408 H 773.89 V 0 H 0 Z"
         id="path456"
         inkscape:connector-curvature="0" /></clipPath></defs><sodipodi:namedview
     pagecolor="#ffffff"
     bordercolor="#666666"
     borderopacity="1"
     objecttolerance="10"
     gridtolerance="10"
     guidetolerance="10"
     inkscape:pageopacity="0"
     inkscape:pageshadow="2"
     inkscape:window-width="1920"
     inkscape:window-height="978"
     id="namedview444"
     showgrid="false"
     inkscape:zoom="0.25270985"
     inkscape:cx="515.92664"
     inkscape:cy="466.93866"
     inkscape:window-x="0"
     inkscape:window-y="27"
     inkscape:window-maximized="1"
     inkscape:current-layer="g450" /><g
     id="g450"
     inkscape:groupmode="layer"
     inkscape:label="link-icon-1"
     transform="matrix(1.3333333,0,0,-1.3333333,0,933.87733)"><g
       id="g452"><g
         id="g454"
         clip-path="url(#clipPath458)"><g
           id="g460"
           transform="translate(763.8898,240.4372)"><path
             d="m 0,0 c -0.952,-6.043 -1.729,-12.119 -2.884,-18.123 -7.108,-36.963 -25.517,-67.955 -50.918,-95.081 -29.702,-31.72 -65.97,-54.032 -105.107,-71.986 -50.351,-23.099 -103.396,-36.237 -158.364,-42.069 -50.863,-5.395 -101.562,-3.934 -151.97,4.481 -61.312,10.236 -119.399,29.697 -172.468,62.69 -35.609,22.139 -66.274,49.488 -87.306,86.299 -36.45,63.795 -32.358,125.956 9.117,185.882 20.062,28.986 46.51,51.514 75.671,70.95 6.713,4.475 13.84,7.981 22.394,5.84 9.135,-2.288 15.002,-8.072 17.18,-17.058 2.137,-8.815 -0.054,-16.853 -7.337,-22.599 -8.216,-6.482 -16.959,-12.291 -25.298,-18.623 -21.908,-16.633 -41.139,-35.798 -54.132,-60.348 -21.126,-39.916 -20.335,-79.584 1.638,-119.128 14.074,-25.326 34.65,-44.278 57.638,-60.999 37.577,-27.335 79.62,-44.862 124.497,-56.014 53.958,-13.408 108.706,-17.911 164.17,-14.673 50.525,2.95 99.711,12.372 147.036,30.509 38.553,14.776 74.12,34.584 103.771,63.901 17.731,17.531 31.311,37.775 40.076,61.19 4.749,12.687 4.813,25.934 5.344,39.217 0.871,21.805 -6.497,41.086 -16.84,59.657 -10.939,19.64 -26.677,35.079 -43.559,49.374 -9.569,8.104 -19.991,15.203 -30.074,22.693 -6.343,4.712 -11.68,10.002 -12.274,18.53 -0.615,8.851 2.566,16.011 9.961,20.816 7.663,4.979 16.204,6.265 24.177,1.327 10.189,-6.307 20.174,-13.073 29.587,-20.48 27.461,-21.613 51.466,-46.323 67.369,-77.996 C -9.088,68.628 -2.78,48.077 -0.72,26.26 -0.631,25.315 -0.247,24.399 0,23.47 Z"
             style="fill:none;stroke:#231f20;stroke-width:20;stroke-linecap:butt;stroke-linejoin:miter;stroke-miterlimit:10;stroke-dasharray:none;stroke-opacity:1"
             id="path462"
             inkscape:connector-curvature="0" /></g><g
           id="g464"
           transform="translate(538.4044,691.4079)"><path
             d="M 0,0 C 1.855,-0.535 3.713,-1.062 5.565,-1.607 22.102,-6.472 32.495,-22.2 30.39,-39.169 28.315,-55.883 14.325,-68.912 -2.333,-69.645 c -16.939,-0.744 -32.311,11.093 -35.716,27.504 -3.735,17.997 7.934,36.325 26.131,41.061 1.191,0.309 2.357,0.718 3.535,1.08 z"
             style="fill:none;stroke:#231f20;stroke-width:18;stroke-linecap:butt;stroke-linejoin:miter;stroke-miterlimit:10;stroke-dasharray:none;stroke-opacity:1"
             id="path466"
             inkscape:connector-curvature="0" /></g><g
           id="g468"
           transform="translate(242.5065,691.4079)"><path
             d="M 0,0 C 2.934,-0.848 5.923,-1.538 8.791,-2.567 25.924,-8.718 35.077,-25.534 30.86,-42.97 26.651,-60.371 10.482,-71.588 -7.059,-69.272 c -17.72,2.338 -30.565,17.499 -30.108,35.536 0.376,14.843 9.971,27.423 24.477,32.09 1.714,0.552 3.431,1.098 5.146,1.646 z"
             style="fill:none;stroke:#231f20;stroke-width:18;stroke-linecap:butt;stroke-linejoin:miter;stroke-miterlimit:10;stroke-dasharray:none;stroke-opacity:1"
             id="path470"
             inkscape:connector-curvature="0" /></g><g
           id="g472"
           transform="translate(331.9113,454.1686)"><path
             d="m 0,0 h -7.706 v -5.194 c 0,-41.067 0,-82.134 -10e-4,-123.202 0,-6.394 -5.38,-13.219 -11.796,-13.933 -4.516,-0.504 -9.247,-0.376 -13.726,0.388 -7.074,1.207 -10.717,5.587 -10.872,12.807 -0.565,26.249 -1.158,52.501 -1.304,78.755 -0.136,24.581 0.28,49.165 0.456,73.748 0.007,0.978 0.125,1.963 0.043,2.932 -1.561,18.333 8.529,28.792 23.96,35.804 10.662,4.845 21.937,6.511 33.458,6.573 28.068,0.148 56.137,0.128 84.205,0.03 15.032,-0.053 29.398,-2.786 42.366,-11.064 6.28,-4.009 11.193,-9.203 15.052,-15.457 0.685,-1.11 1.051,-2.603 1.053,-3.919 0.076,-54.754 0.138,-109.508 0.002,-164.262 -0.008,-3.168 -1.202,-6.585 -2.694,-9.443 -2.57,-4.92 -6.871,-7.321 -12.682,-7.321 -6.929,-10e-4 -13.644,-0.346 -18.722,5.896 -1.896,2.33 -2.918,4.374 -2.912,7.387 0.084,41.347 0.055,82.694 0.054,124.04 v 5.33 h -7.933 v -5.582 c 0,-112.584 0,-225.167 0,-337.75 0,-6.375 -6.981,-16.032 -13.259,-16.685 -7.567,-0.788 -15.337,-0.935 -22.893,-0.145 -7.585,0.793 -13.22,7.156 -13.586,14.852 -0.82,17.288 -1.381,34.601 -1.551,51.907 -0.449,45.674 -0.616,91.35 -0.948,137.024 -0.032,4.464 -0.337,8.933 -0.7,13.385 -0.136,1.661 -0.802,3.277 -1.226,4.912 -0.555,0.032 -1.11,0.064 -1.665,0.095 -0.508,-2.075 -1.385,-4.136 -1.462,-6.225 -0.403,-11.026 -0.768,-22.056 -0.846,-33.087 -0.335,-46.931 -0.533,-93.863 -0.864,-140.793 -0.055,-7.818 -0.391,-15.64 -0.829,-23.448 -0.677,-12.064 -7.153,-18.576 -19.233,-19.464 -3.056,-0.225 -6.164,0.162 -9.21,-0.131 -9.633,-0.926 -15.715,4.534 -20.863,11.518 -0.867,1.177 -0.918,3.142 -0.919,4.743 -0.042,70.82 -0.035,141.639 -0.035,212.458 0,42.744 0,85.487 -0.012,128.23 C 0.2,-2.932 0.077,-1.573 0,0 Z"
             style="fill:none;stroke:#231f20;stroke-width:20;stroke-linecap:butt;stroke-linejoin:miter;stroke-miterlimit:10;stroke-dasharray:none;stroke-opacity:1"
             id="path474"
             inkscape:connector-curvature="0" /></g><g
           id="g476"
           transform="translate(496.4987,561.3073)"><path
             d="m 0,0 c -2.629,-11 0.072,-22.549 -2.326,-34.102 -2.861,1.388 -5.421,2.739 -8.067,3.89 -5.878,2.559 -11.831,4.949 -17.68,7.572 -1.199,0.538 -2.984,1.809 -2.968,2.716 0.275,16.038 0.617,32.08 1.334,48.104 0.281,6.274 4.09,10.871 9.203,14.277 7.929,5.281 16.7,8.884 26.132,9.468 27.749,1.72 55.534,2.484 83.275,-0.368 12.998,-1.336 24.334,-6.14 32.727,-16.55 1.117,-1.386 2.027,-3.405 2.043,-5.141 0.405,-43.577 0.65,-87.154 1.012,-130.731 0.037,-4.475 -3.174,-6.4 -6.12,-8.25 -4.865,-3.056 -10.313,-3.129 -15.775,-1.614 -4.077,1.131 -5.777,4.336 -6.294,8.095 -0.684,4.969 -1.258,9.992 -1.331,15 -0.379,25.836 -0.553,51.674 -0.888,77.511 -0.041,3.244 -0.608,6.48 -0.931,9.721 -0.479,0.008 -0.958,0.017 -1.436,0.026 -0.278,-1.646 -0.769,-3.288 -0.802,-4.938 -0.391,-20.105 -0.965,-40.21 -1.013,-60.317 -0.157,-66.346 -0.118,-132.691 -0.151,-199.037 -0.003,-7.006 -5.479,-14.586 -12.319,-15.62 -5.012,-0.757 -10.342,-0.782 -15.337,0.04 -7.804,1.285 -9.883,3.821 -10.058,11.714 -0.78,35.186 -1.339,70.379 -1.996,105.568 -0.292,15.64 -0.571,31.279 -0.994,46.915 -0.079,2.908 -0.816,5.8 -1.249,8.698 -0.62,0.007 -1.24,0.013 -1.86,0.019 -0.382,-2.447 -1.071,-4.892 -1.099,-7.344 -0.313,-27.372 -0.497,-54.746 -0.772,-82.119 -0.223,-22.201 -0.502,-44.402 -0.799,-66.603 -0.101,-7.588 -2.705,-14.027 -10.402,-16.478 -8.752,-2.788 -17.572,-2.496 -24.829,4.023 -5.645,5.07 -5.251,10.895 0.12,16.152 6.662,6.522 10.444,14.342 10.455,23.861 0.017,15.224 0.334,30.448 0.234,45.67 -0.238,36.453 -0.617,72.906 -1.015,109.358 -0.054,4.881 -0.463,9.764 -0.861,14.634 -0.606,7.42 -2.763,14.293 -8.086,19.754 -4.422,4.536 -5.717,10.03 -5.701,16.101 0.021,7.961 0.003,15.924 -0.194,23.881 C 3.127,-4.259 2.373,-2.09 1.94,0.086 1.293,0.058 0.646,0.028 0,0 Z"
             style="fill:none;stroke:#231f20;stroke-width:20;stroke-linecap:butt;stroke-linejoin:miter;stroke-miterlimit:10;stroke-dasharray:none;stroke-opacity:1"
             id="path478"
             inkscape:connector-curvature="0" /></g><g
           id="g480"
           transform="translate(279.3112,526.4831)"><path
             d="m 0,0 c -1.233,11.495 1.196,23.33 -1.67,34.736 -0.573,0.048 -1.146,0.096 -1.719,0.144 -0.449,-2.154 -1.244,-4.302 -1.288,-6.465 -0.195,-9.495 0.003,-19 -0.343,-28.487 -0.094,-2.567 -0.913,-5.703 -2.566,-7.514 -8.438,-9.245 -11.419,-20.185 -11.402,-32.353 0.073,-52.791 0.048,-105.583 0.159,-158.375 0.009,-4.306 0.801,-8.608 1.188,-12.916 0.645,-7.189 4.044,-12.538 10.178,-16.431 1.203,-0.763 2.117,-3.289 1.878,-4.8 -1.252,-7.925 -7.697,-13.236 -15.687,-13.344 -3.072,-0.042 -6.149,0.142 -9.217,0.035 -6.408,-0.222 -10.115,4.12 -13.886,8.223 -0.69,0.751 -0.605,2.358 -0.614,3.573 -0.3,43.021 -0.532,86.042 -0.872,129.063 -0.072,9.075 -0.474,18.148 -0.842,27.218 -0.069,1.701 -0.7,3.379 -1.072,5.069 -0.489,0.043 -0.978,0.087 -1.468,0.131 -0.429,-1.84 -1.163,-3.668 -1.239,-5.523 -0.453,-11.022 -0.89,-22.049 -1.082,-33.08 -0.689,-39.521 -1.278,-79.046 -1.909,-118.569 -0.022,-1.396 -0.064,-2.793 -0.14,-4.188 -0.414,-7.492 -1.804,-9.575 -9.108,-11.321 -9.956,-2.381 -19.618,-2.514 -26.335,7.103 -1.307,1.873 -2.179,4.491 -2.184,6.768 -0.149,65.232 -0.068,130.463 -0.249,195.695 -0.061,21.921 -0.722,43.842 -1.154,65.762 -0.028,1.442 -0.439,2.874 -0.671,4.312 l -1.457,0.058 c -0.365,-3.31 -1.003,-6.618 -1.049,-9.933 -0.202,-14.664 -0.143,-29.333 -0.354,-43.997 -0.192,-13.405 -0.599,-26.806 -0.941,-40.207 -0.039,-1.533 -0.218,-3.068 -0.423,-4.588 -1.136,-8.455 -3.005,-11.097 -8.583,-12.215 -7.672,-1.537 -16.139,1.465 -19.34,7.029 -0.574,0.999 -0.645,2.394 -0.638,3.604 0.262,43.301 0.525,86.6 0.96,129.899 0.021,2.095 1.105,4.626 2.533,6.188 10.038,10.978 22.808,16.743 37.511,16.825 26.381,0.147 52.769,-0.349 79.148,-0.875 8.513,-0.17 16.265,-3.109 23.526,-7.847 6.924,-4.517 10.764,-10.42 11.019,-18.573 0.46,-14.657 0.811,-29.317 1.057,-43.98 0.017,-1.066 -0.926,-2.683 -1.867,-3.149 C 18.944,8.321 10.004,4.131 1.083,-0.096 0.876,-0.193 0.56,-0.058 0,0 Z"
             style="fill:none;stroke:#231f20;stroke-width:20;stroke-linecap:butt;stroke-linejoin:miter;stroke-miterlimit:10;stroke-dasharray:none;stroke-opacity:1"
             id="path482"
             inkscape:connector-curvature="0" /></g><g
           id="g484"
           transform="translate(386.9874,533.4421)"><path
             d="m 0,0 c -24.997,0.097 -44.718,19.87 -44.591,44.708 0.129,25.222 19.38,44.348 44.258,44.603 C 24.784,89.567 45.375,68.585 45.03,44.878 44.642,18.164 23.007,-0.266 0,0 Z"
             style="fill:none;stroke:#231f20;stroke-width:20;stroke-linecap:butt;stroke-linejoin:miter;stroke-miterlimit:10;stroke-dasharray:none;stroke-opacity:1"
             id="path486"
             inkscape:connector-curvature="0" /></g></g></g></g></svg>