<?xml version="1.0" encoding="UTF-8" standalone="no"?>
<!-- Created with Inkscape (http://www.inkscape.org/) -->

<svg
   xmlns:dc="http://purl.org/dc/elements/1.1/"
   xmlns:cc="http://creativecommons.org/ns#"
   xmlns:rdf="http://www.w3.org/1999/02/22-rdf-syntax-ns#"
   xmlns:svg="http://www.w3.org/2000/svg"
   xmlns="http://www.w3.org/2000/svg"
   xmlns:sodipodi="http://sodipodi.sourceforge.net/DTD/sodipodi-0.dtd"
   xmlns:inkscape="http://www.inkscape.org/namespaces/inkscape"
   version="1.1"
   id="svg414"
   xml:space="preserve"
   width="688.11865"
   height="834.97736"
   viewBox="0 0 688.11865 834.97736"
   sodipodi:docname="link-icon-2.svg"
   inkscape:version="0.92.4 (unknown)"><metadata
     id="metadata420"><rdf:RDF><cc:Work
         rdf:about=""><dc:format>image/svg+xml</dc:format><dc:type
           rdf:resource="http://purl.org/dc/dcmitype/StillImage" /><dc:title></dc:title></cc:Work></rdf:RDF></metadata><defs
     id="defs418"><clipPath
       clipPathUnits="userSpaceOnUse"
       id="clipPath430"><path
         d="M 0,626.233 H 516.089 V 0 H 0 Z"
         id="path428"
         inkscape:connector-curvature="0" /></clipPath></defs><sodipodi:namedview
     pagecolor="#ffffff"
     bordercolor="#666666"
     borderopacity="1"
     objecttolerance="10"
     gridtolerance="10"
     guidetolerance="10"
     inkscape:pageopacity="0"
     inkscape:pageshadow="2"
     inkscape:window-width="1920"
     inkscape:window-height="978"
     id="namedview416"
     showgrid="false"
     inkscape:zoom="0.2826424"
     inkscape:cx="344.05933"
     inkscape:cy="417.48868"
     inkscape:window-x="0"
     inkscape:window-y="27"
     inkscape:window-maximized="1"
     inkscape:current-layer="g422" /><g
     id="g422"
     inkscape:groupmode="layer"
     inkscape:label="link-icon-2"
     transform="matrix(1.3333333,0,0,-1.3333333,0,834.97733)"><g
       id="g424"><g
         id="g426"
         clip-path="url(#clipPath430)"><path
           d="m 281.318,241.705 h -46.626 v -13.311 h 46.626 z m 35.169,-47.212 c -29.376,20.012 -96.467,16.825 -115.995,0 z m -58.812,68.321 h 22.948 c 7.781,0 10.036,2.251 9.585,10.264 -0.176,3.115 -0.912,6.275 -1.932,9.229 -0.386,1.119 -2.284,2.43 -3.504,2.442 -17.792,0.156 -35.586,0.155 -53.378,0.004 -1.256,-0.011 -3.459,-1.36 -3.587,-2.307 -0.677,-5.004 -1.071,-10.078 -1.077,-15.129 -0.003,-3.243 1.828,-4.736 5.506,-4.602 8.469,0.313 16.958,0.1 25.439,0.099 M 379.311,35.8 H 136.927 V 21.097 h 242.384 z m 55.099,543.987 c -1.973,-33.782 -6.071,-67.093 -13.288,-99.979 -7.238,-32.975 -17.435,-64.994 -31.969,-96.659 1.92,0.772 2.702,0.991 3.39,1.378 30.431,17.111 56.988,38.725 77.364,67.34 15.921,22.356 25.818,46.876 25.423,74.814 -0.45,31.915 -28.608,56.817 -60.92,53.106 M 125.568,383.254 c 0.27,0.249 0.54,0.498 0.809,0.748 -1.884,4.344 -3.817,8.669 -5.645,13.036 -23.779,56.815 -34.886,116.421 -38.698,177.567 -0.326,5.239 -2.521,5.873 -6.605,5.896 -29.436,0.159 -54.301,-24.084 -54.833,-53.625 -0.395,-21.887 5.748,-42.083 16.509,-60.911 17.774,-31.092 43.451,-54.432 73.215,-73.638 4.967,-3.204 10.16,-6.058 15.248,-9.073 M 153.765,57.189 h 208.54 v 116.342 h -208.54 z m -52.1,548.046 c -0.109,-1.631 -0.301,-2.938 -0.268,-4.241 0.954,-37.362 4.717,-74.422 12.388,-111.024 9.064,-43.247 22.619,-84.906 45.142,-123.209 13.365,-22.726 29.3,-43.353 51.369,-58.43 2.672,-1.827 6.387,-2.955 9.631,-2.987 25.49,-0.239 50.983,-0.217 76.472,-0.014 2.943,0.023 6.276,1.032 8.744,2.637 13.406,8.719 24.415,20.08 34.162,32.644 25.822,33.283 41.741,71.368 53.482,111.416 11.902,40.601 18.158,82.177 20.741,124.326 0.584,9.535 0.086,19.136 0.086,28.882 z m -21.018,-4.294 c 0,3.436 -0.11,6.25 0.02,9.052 0.396,8.494 6.561,15.054 15.028,15.963 2.476,0.265 4.989,0.267 7.484,0.268 103.15,0.012 206.299,0.01 309.449,0.008 17.264,0 22.292,-4.878 22.762,-22.053 0.023,-0.824 0.148,-1.646 0.25,-2.742 5.612,-0.481 11.237,-0.633 16.753,-1.49 38.044,-5.915 65.438,-40.322 63.61,-78.788 -1.837,-38.68 -18.347,-70.818 -43.388,-99.09 -26.81,-30.27 -58.866,-53.34 -96.711,-68.114 -2.083,-0.814 -4.04,-2.826 -5.286,-4.773 -13.67,-21.345 -29.12,-41.203 -50.213,-55.655 -7.507,-5.144 -11.992,-9.224 -10.268,-19.689 1.162,-7.058 -2.146,-15.357 -5.11,-22.406 -1.87,-4.445 -3.257,-8.487 -3.054,-13.217 0.2,-4.652 -1.411,-10.386 0.762,-13.661 2.109,-3.177 8.03,-3.804 12.255,-5.602 11.527,-4.905 21.999,-11.081 28.343,-22.586 0.65,-1.177 2.944,-1.99 4.5,-2.032 7.66,-0.208 15.329,-0.079 22.994,-0.108 8.784,-0.035 12.468,-3.594 12.517,-12.412 0.088,-15.496 0.028,-30.994 0.029,-46.491 0,-23.996 0,-47.992 0,-71.988 v -6.123 c 1.221,-0.17 2.002,-0.356 2.787,-0.378 11.102,-0.313 13.824,-3.056 13.838,-14.026 0.011,-9.832 0.018,-19.663 -0.003,-29.495 C 399.973,3.277 396.638,0.012 386.335,0.008 348.508,-0.006 310.681,0.003 272.854,0.003 225.362,0.003 177.87,0 130.378,0.005 c -11.337,0.001 -14.602,3.261 -14.61,14.557 -0.007,9.332 -0.009,18.664 0.001,27.996 0.012,10.942 3.023,14.048 13.78,14.266 0.823,0.016 1.644,0.105 3.212,0.212 v 5.821 c 0,39.327 -0.003,78.653 0.002,117.981 0.001,10.262 3.136,13.382 13.42,13.394 7.332,0.009 14.666,-0.082 21.995,0.082 1.461,0.033 3.663,0.598 4.236,1.631 7.573,13.666 20.351,20.114 34.207,25.142 2.182,0.792 4.395,1.498 7.118,2.421 0,7.348 0.055,14.812 -0.063,22.274 -0.017,1.047 -0.792,2.133 -1.368,3.11 -6.05,10.279 -8.473,21.164 -6.134,33.052 0.321,1.63 -0.491,4.499 -1.728,5.268 -24.79,15.421 -42.953,37.079 -58.647,61.208 -1.734,2.666 -4.743,5.032 -7.694,6.298 -55.288,23.736 -99.386,59.793 -125.79,114.937 -9.631,20.116 -13.971,41.629 -11.741,64.08 3.692,37.157 35.746,66.569 73.046,67.201 2.142,0.036 4.285,0.005 7.027,0.005"
           style="fill:#000000;fill-opacity:1;fill-rule:nonzero;stroke:none"
           id="path432"
           inkscape:connector-curvature="0" /><g
           id="g434"
           transform="translate(394.4648,566.6754)"><path
             d="m 0,0 c -5.331,-59.73 -17.452,-120.285 -47.935,-175.842 -10.725,-19.546 -23.835,-37.298 -41.213,-51.622 -3.74,-3.083 -7.383,-4.315 -11.824,-1.848 -4.165,2.315 -6.542,6.914 -5.691,11.802 0.263,1.514 1.028,3.332 2.174,4.242 24.529,19.486 39.298,45.801 51.394,73.849 15.532,36.019 24.329,73.873 29.371,112.652 1.33,10.229 2.193,20.52 3.176,30.791 0.633,6.628 4.495,9.939 11.32,9.479 C -2.851,13.072 0.386,9.292 0,0"
             style="fill:#000000;fill-opacity:1;fill-rule:nonzero;stroke:none"
             id="path436"
             inkscape:connector-curvature="0" /></g><g
           id="g438"
           transform="translate(192.9209,134.6051)"><path
             d="m 0,0 v -38.358 h 130.703 c 0,11.24 -0.212,22.052 0.101,32.849 0.132,4.537 -1.128,5.894 -5.788,5.872 C 85.049,0.179 45.082,0.261 5.115,0.247 3.492,0.247 1.869,0.095 0,0 m 65.252,20.605 c 24.495,0 48.989,0.015 73.484,-0.008 9.011,-0.008 12.318,-3.327 12.331,-12.367 0.027,-18.496 0.034,-36.992 -0.005,-55.488 -0.018,-8.519 -3.628,-12.138 -12.212,-12.144 -49.156,-0.03 -98.311,-0.028 -147.467,-0.003 -8.61,0.004 -12.507,3.92 -12.525,12.539 -0.039,18.329 -0.038,36.659 -0.001,54.988 0.018,8.869 3.59,12.461 12.412,12.472 24.661,0.032 49.322,0.011 73.983,0.011"
             style="fill:#000000;fill-opacity:1;fill-rule:nonzero;stroke:none"
             id="path440"
             inkscape:connector-curvature="0" /></g></g></g></g></svg>