<?xml version="1.0" encoding="UTF-8" standalone="no"?>
<!-- Created with Inkscape (http://www.inkscape.org/) -->

<svg
   xmlns:dc="http://purl.org/dc/elements/1.1/"
   xmlns:cc="http://creativecommons.org/ns#"
   xmlns:rdf="http://www.w3.org/1999/02/22-rdf-syntax-ns#"
   xmlns:svg="http://www.w3.org/2000/svg"
   xmlns="http://www.w3.org/2000/svg"
   xmlns:sodipodi="http://sodipodi.sourceforge.net/DTD/sodipodi-0.dtd"
   xmlns:inkscape="http://www.inkscape.org/namespaces/inkscape"
   version="1.1"
   id="svg80"
   xml:space="preserve"
   width="68.872002"
   height="68.872002"
   viewBox="0 0 68.872004 68.872002"
   sodipodi:docname="soc-icon-3.svg"
   inkscape:version="0.92.4 (unknown)"><metadata
     id="metadata86"><rdf:RDF><cc:Work
         rdf:about=""><dc:format>image/svg+xml</dc:format><dc:type
           rdf:resource="http://purl.org/dc/dcmitype/StillImage" /><dc:title></dc:title></cc:Work></rdf:RDF></metadata><defs
     id="defs84"><clipPath
       clipPathUnits="userSpaceOnUse"
       id="clipPath96"><path
         d="M 0,99.035 H 99.036 V 0 H 0 Z"
         id="path94"
         inkscape:connector-curvature="0" /></clipPath></defs><sodipodi:namedview
     pagecolor="#ffffff"
     bordercolor="#666666"
     borderopacity="1"
     objecttolerance="10"
     gridtolerance="10"
     guidetolerance="10"
     inkscape:pageopacity="0"
     inkscape:pageshadow="2"
     inkscape:window-width="1920"
     inkscape:window-height="978"
     id="namedview82"
     showgrid="false"
     inkscape:zoom="2.133956"
     inkscape:cx="12.806228"
     inkscape:cy="32.390936"
     inkscape:window-x="0"
     inkscape:window-y="27"
     inkscape:window-maximized="1"
     inkscape:current-layer="g88" /><g
     id="g88"
     inkscape:groupmode="layer"
     inkscape:label="soc-icon-3"
     transform="matrix(1.3333333,0,0,-1.3333333,-31.605999,100.45946)"><g
       id="g90"><g
         id="g92"
         clip-path="url(#clipPath96)"><g
           id="g98"
           transform="translate(81.8169,81.7892)" /><g
           id="g102"
           transform="translate(49.5181,37.8365)"><path
             d="m 0,0 c -6.434,0 -11.668,5.246 -11.668,11.695 0,6.449 5.234,11.695 11.668,11.695 6.449,0 11.695,-5.246 11.695,-11.695 C 11.695,5.246 6.449,0 0,0 m 0,28.707 c -9.381,0 -17.013,-7.632 -17.013,-17.012 0,-9.381 7.632,-17.013 17.013,-17.013 9.38,0 17.012,7.632 17.012,17.013 0,9.38 -7.632,17.012 -17.012,17.012"
             style="fill-opacity:1;fill-rule:nonzero;stroke:none"
             id="path104"
             inkscape:connector-curvature="0" /></g><g
           id="g106"
           transform="translate(62.6245,28.6246)"><path
             d="m 0,0 h -26.185 c -4.301,0 -7.801,3.499 -7.801,7.8 v 26.185 c 0,4.302 3.5,7.801 7.801,7.801 H 0 c 4.302,0 7.801,-3.499 7.801,-7.801 V 7.8 C 7.801,3.499 4.302,0 0,0 m 0,46.72 h -26.185 c -7.022,0 -12.735,-5.713 -12.735,-12.735 V 7.8 c 0,-7.022 5.713,-12.734 12.735,-12.734 H 0 c 7.021,0 12.734,5.712 12.734,12.734 V 33.985 C 12.734,41.007 7.021,46.72 0,46.72"
             style="fill-opacity:1;fill-rule:nonzero;stroke:none"
             id="path108"
             inkscape:connector-curvature="0" /></g><g
           id="g110"
           transform="translate(65.229,68.7096)"><path
             d="m 0,0 c -1.973,0 -3.577,-1.604 -3.577,-3.577 0,-1.972 1.604,-3.577 3.577,-3.577 1.973,0 3.577,1.605 3.577,3.577 C 3.577,-1.604 1.973,0 0,0"
             style="fill-opacity:1;fill-rule:nonzero;stroke:none"
             id="path112"
             inkscape:connector-curvature="0" /></g></g></g></g></svg>