<?xml version="1.0" encoding="UTF-8" standalone="no"?>
<!-- Created with Inkscape (http://www.inkscape.org/) -->

<svg
   xmlns:dc="http://purl.org/dc/elements/1.1/"
   xmlns:cc="http://creativecommons.org/ns#"
   xmlns:rdf="http://www.w3.org/1999/02/22-rdf-syntax-ns#"
   xmlns:svg="http://www.w3.org/2000/svg"
   xmlns="http://www.w3.org/2000/svg"
   xmlns:sodipodi="http://sodipodi.sourceforge.net/DTD/sodipodi-0.dtd"
   xmlns:inkscape="http://www.inkscape.org/namespaces/inkscape"
   version="1.1"
   id="svg137"
   xml:space="preserve"
   width="132.04813"
   height="132.0468"
   viewBox="0 0 132.04813 132.0468"
   sodipodi:docname="soc-icon-1-1.ai.svg"
   inkscape:version="0.92.4 (unknown)"><metadata
     id="metadata143"><rdf:RDF><cc:Work
         rdf:about=""><dc:format>image/svg+xml</dc:format><dc:type
           rdf:resource="http://purl.org/dc/dcmitype/StillImage" /><dc:title></dc:title></cc:Work></rdf:RDF></metadata><defs
     id="defs141"><clipPath
       clipPathUnits="userSpaceOnUse"
       id="clipPath153"><path
         d="M 0,99.035 H 99.036 V 0 H 0 Z"
         id="path151"
         inkscape:connector-curvature="0" /></clipPath></defs><sodipodi:namedview
     pagecolor="#ffffff"
     bordercolor="#666666"
     borderopacity="1"
     objecttolerance="10"
     gridtolerance="10"
     guidetolerance="10"
     inkscape:pageopacity="0"
     inkscape:pageshadow="2"
     inkscape:window-width="1920"
     inkscape:window-height="978"
     id="namedview139"
     showgrid="false"
     inkscape:zoom="6.0357389"
     inkscape:cx="66.024063"
     inkscape:cy="66.023399"
     inkscape:window-x="0"
     inkscape:window-y="27"
     inkscape:window-maximized="1"
     inkscape:current-layer="g145" /><g
     id="g145"
     inkscape:groupmode="layer"
     inkscape:label="soc-icon-1"
     transform="matrix(1.3333333,0,0,-1.3333333,0,132.0468)"><g
       id="g147"><g
         id="g149"
         clip-path="url(#clipPath153)"><g
           id="g155"
           transform="translate(81.7894,81.789)"><path
             d="M 0,0 C -8.253,8.253 -19.658,13.381 -32.272,13.381 -44.885,13.381 -56.29,8.253 -64.571,0 c -8.252,-8.253 -13.352,-19.659 -13.352,-32.271 0,-12.613 5.1,-24.019 13.352,-32.299 8.281,-8.254 19.686,-13.353 32.299,-13.353 12.614,0 24.019,5.099 32.272,13.353 8.253,8.28 13.38,19.686 13.38,32.299 C 13.38,-19.659 8.253,-8.253 0,0 m -32.272,17.246 c 13.655,0 26.048,-5.538 35.013,-14.504 8.966,-8.967 14.506,-21.332 14.506,-35.013 0,-13.682 -5.54,-26.048 -14.506,-35.014 -8.965,-8.966 -21.358,-14.504 -35.013,-14.504 -13.682,0 -26.076,5.538 -35.013,14.504 -8.966,8.966 -14.504,21.332 -14.504,35.014 0,13.681 5.538,26.046 14.504,35.013 8.937,8.966 21.331,14.504 35.013,14.504"
             class="svg-border" style="fill-opacity:1;fill-rule:nonzero;stroke:none"
             id="path157"
             inkscape:connector-curvature="0" /></g><g
           id="g159"
           transform="translate(40.1009,49.4946)"><path
             d="m 0,0 c 0.059,-0.083 0.103,-0.144 0.132,-0.189 0.02,-0.027 0.057,-0.082 0.111,-0.162 2.922,-4.335 6.592,-7.525 10.334,-8.982 3.614,-1.402 5.146,-1.719 6.014,-1.719 0.374,0 0.625,0.059 0.866,0.115 0.161,0.038 0.314,0.074 0.496,0.087 1.083,0.082 3.668,1.42 4.222,2.962 0.502,1.425 0.507,2.669 0.312,2.994 -0.156,0.217 -0.557,0.406 -1.201,0.698 -0.177,0.085 -0.536,0.262 -0.974,0.478 -1.169,0.577 -2.772,1.367 -3.185,1.531 l -0.076,0.02 C 16.485,-2.013 16.034,-1.889 15.59,-2.569 15.197,-3.185 13.992,-4.55 13.681,-4.888 13.373,-5.266 13.085,-5.306 12.54,-5.044 12.449,-5.003 12.335,-4.956 12.198,-4.898 11.366,-4.554 9.637,-3.836 7.663,-2.05 5.654,-0.28 4.423,1.825 4.292,2.054 4.015,2.609 4.201,2.828 4.483,3.16 l 0.023,0.029 c 0.299,0.244 0.607,0.625 0.941,1.05 0.079,0.078 0.177,0.175 0.235,0.294 0.132,0.198 0.214,0.363 0.306,0.553 l 0.084,0.17 C 6.338,5.755 6.192,6.159 6.02,6.415 5.875,6.8 4.67,9.745 4.158,10.9 3.692,12.066 3.163,12.026 2.82,12 2.777,11.997 2.737,11.993 2.7,11.993 c -0.186,0 -0.373,0.013 -0.562,0.027 -0.199,0.013 -0.405,0.027 -0.617,0.027 -0.46,0 -1.13,-0.14 -1.706,-0.804 L -0.258,11.171 C -0.896,10.54 -2.389,9.062 -2.389,6.11 -2.389,5.438 -2.263,4.723 -2.028,4.048 -1.521,2.141 -0.416,0.585 0,0"
             class="svg-icon" style="fill-opacity:1;fill-rule:nonzero;stroke:none"
             id="path161"
             inkscape:connector-curvature="0" /></g><g
           id="g163"
           transform="translate(33.1673,38.103)"><path
             d="m 0,0 c -2.585,3.524 -3.951,7.699 -3.951,12.073 0,0.747 0.033,1.36 0.108,1.99 1.052,10.595 9.922,18.585 20.632,18.585 10.779,0 19.865,-8.332 20.686,-18.97 0.054,-0.542 0.054,-1.082 0.054,-1.605 0,-11.361 -9.303,-20.604 -20.74,-20.604 -4.066,0 -8.006,1.178 -11.393,3.407 l -0.049,0.033 -7.828,-2.493 2.519,7.532 z m 41.74,12.383 c -0.006,0.093 -0.012,0.186 -0.012,0.293 v 0.003 c -0.174,6.485 -2.844,12.55 -7.52,17.079 -4.684,4.536 -10.869,7.034 -17.419,7.034 -13.4,0 -24.331,-10.386 -24.882,-23.629 -0.056,-0.34 -0.056,-0.738 -0.056,-1.09 0,-4.461 1.228,-8.864 3.552,-12.737 l -4.478,-13.162 -0.08,-0.234 13.949,4.419 c 3.652,-1.985 7.8,-3.034 11.995,-3.034 13.766,0 24.965,11.102 24.965,24.748 0,0.113 -0.007,0.211 -0.014,0.31"
             class="svg-icon" style="fill-opacity:1;fill-rule:nonzero;stroke:none"
             id="path165"
             inkscape:connector-curvature="0" /></g></g></g></g></svg>